#!OML:ASF F:\VICON\USERDATA\INSTALL\rory3\rory3.ASF
:FULLY-SPECIFIED
:DEGREES
130
root 5.0191 16.5836 12.9128 -167.372 -8.2622 188.011
lowerback -2.93451 15.4241 6.67105
upperback -7.12311 20.2094 -1.81668
thorax -3.06825 9.63038 -4.76887
lowerneck -13.2117 -3.81891 -4.78361
upperneck 22.0305 -5.56301 3.47497
head 9.34498 -2.81027 1.29519
rclavicle 1.22635e-013 2.26615e-014
rhumerus 60.1238 -28.4831 258.858
rradius 5.24826
rwrist 31.9553
rhand 9.13891 17.3419
rfingers 7.12502
rthumb 34.3092 -9.37274
lclavicle 1.22635e-013 2.26615e-014
lhumerus -32.4578 49.1586 -23.0364
lradius 17.3304
lwrist -41.1246
lhand 2.14205 32.623
lfingers 7.12502
lthumb 27.6404 60.6125
rfemur -29.8985 -2.05927 26.5424
rtibia 44.6278
rfoot -11.5429 -13.2042
rtoes -22.0843
lfemur -46.1518 4.95866 -3.32292
ltibia 51.7256
lfoot -8.03272 12.715
ltoes -26.3019
131
root 4.96019 16.4608 12.9099 -166.664 -7.41829 188.074
lowerback -1.59864 15.6733 7.01816
upperback -8.34536 20.6358 -2.53982
thorax -4.66951 9.67272 -6.1549
lowerneck -13.0674 -3.85033 -4.55378
upperneck 22.5197 -5.81058 3.7771
head 9.50222 -2.89337 1.32846
rclavicle 8.5816e-014 -1.45113e-014
rhumerus 60.1693 -35.3021 256.259
rradius 8.73865
rwrist 37.7767
rhand 11.6884 20.7213
rfingers 7.12502
rthumb 36.7259 -5.4135
lclavicle 8.5816e-014 -1.45113e-014
lhumerus -31.1015 49.7623 -22.9845
lradius 17.1088
lwrist -42.1793
lhand 2.03891 32.1253
lfingers 7.12502
lthumb 27.5418 60.1306
rfemur -31.506 -1.99374 26.3942
rtibia 46.3067
rfoot -12.9589 -12.8643
rtoes -19.3852
lfemur -47.1791 5.56613 -3.31003
ltibia 53.1128
lfoot -9.43333 12.3488
ltoes -27.5467
132
root 4.90611 16.3432 12.9074 -166.144 -6.69083 187.864
lowerback -0.294656 15.8145 7.15254
upperback -9.33014 20.9184 -3.20694
thorax -6.11772 9.64738 -7.39346
lowerneck -12.7056 -3.80374 -4.47732
upperneck 22.8416 -5.95698 4.23617
head 9.56593 -2.92913 1.45933
rclavicle -1.86982e-014 1.66979e-014
rhumerus 63.4409 -39.4112 251.364
rradius 8.49965
rwrist 44.5212
rhand 10.5492 22.4771
rfingers 7.12502
rthumb 35.647 -3.92539
lclavicle -1.86982e-014 1.66979e-014
lhumerus -27.9123 46.6564 -20.1371
lradius 17.2222
lwrist -38.7986
lhand 1.40802 33.5582
lfingers 7.12502
lthumb 26.9383 61.6582
rfemur -32.9034 -1.95489 25.965
rtibia 48.0006
rfoot -14.8998 -12.7467
rtoes -19.3872
lfemur -48.0169 6.12739 -3.63504
ltibia 54.3863
lfoot -10.8149 11.9605
ltoes -28.5734
133
root 4.85248 16.222 12.9114 -165.734 -5.73963 187.626
lowerback 0.825224 16.0518 7.10259
upperback -10.0707 21.309 -3.7234
thorax -7.3107 9.70011 -8.334
lowerneck -12.4159 -3.86352 -4.34952
upperneck 23.1434 -6.21016 4.49883
head 9.63461 -3.02818 1.49966
rclavicle -8.91922e-014 -5.64548e-014
rhumerus 67.9308 -43.0144 245.892
rradius 7.81745
rwrist 51.2381
rhand 8.2466 23.2328
rfingers 7.12502
rthumb 33.4615 -3.66892
lclavicle -8.91922e-014 -5.64548e-014
lhumerus -25.1125 43.8186 -17.3907
lradius 17.3015
lwrist -35.6923
lhand 0.6338 35.6393
lfingers 7.12502
lthumb 26.1973 63.8514
rfemur -34.1793 -1.77039 25.484
rtibia 49.6589
rfoot -16.731 -12.9756
rtoes -23.8261
lfemur -48.717 7.01009 -4.14194
ltibia 55.5801
lfoot -12.1779 11.6387
ltoes -29.4148
134
root 4.79783 16.1068 12.9114 -165.362 -4.78447 187.31
lowerback 1.56405 16.2768 6.78019
upperback -10.5288 21.6364 -4.01945
thorax -8.17386 9.7759 -8.80552
lowerneck -12.2523 -3.86529 -4.35378
upperneck 23.275 -6.27969 4.62317
head 9.65791 -3.05825 1.53654
rclavicle -1.145e-013 -5.68524e-014
rhumerus 73.4366 -45.8676 239.889
rradius 7.69384
rwrist 57.7548
rhand 6.26761 23.5537
rfingers 7.12502
rthumb 31.5783 -3.73591
lclavicle -1.145e-013 -5.68524e-014
lhumerus -23.8041 44.0626 -16.2294
lradius 17.1141
lwrist -36.0104
lhand -0.0376174 36.1417
lfingers 7.12502
lthumb 25.5543 64.4476
rfemur -35.4404 -1.61279 24.8837
rtibia 51.3337
rfoot -18.1823 -13.1478
rtoes -26.7295
lfemur -49.3324 8.07506 -4.87502
ltibia 56.7627
lfoot -13.6599 11.1802
ltoes -29.5709
